<svg height="512" viewBox="0 0 64 64" width="512" xmlns="http://www.w3.org/2000/svg"><g id="flat"><circle cx="32" cy="32" fill="#ffd782" r="29"/><circle cx="32" cy="32" fill="#da1c4b" r="25"/><circle cx="32" cy="32" fill="#8ec13f" r="19"/><circle cx="32" cy="32" fill="#ffd782" r="12"/><path d="m32 44a12.017 12.017 0 0 1 -3-.393v7.134a17.5 17.5 0 0 0 6 0v-7.134a12.017 12.017 0 0 1 -3 .393z" fill="#e5e4cf"/><path d="m42.237 38.237a12.028 12.028 0 0 1 -4 4l5.034 5.034a19.1 19.1 0 0 0 4-4z" fill="#e5e4cf"/><path d="m50.741 29h-7.134a11.647 11.647 0 0 1 0 6h7.134a17.5 17.5 0 0 0 0-6z" fill="#e5e4cf"/><path d="m42.237 25.763 5.034-5.034a19.1 19.1 0 0 0 -4-4l-5.034 5.034a12.028 12.028 0 0 1 4 4z" fill="#e5e4cf"/><path d="m32 20a12.017 12.017 0 0 1 3 .393v-7.134a17.5 17.5 0 0 0 -6 0v7.134a12.017 12.017 0 0 1 3-.393z" fill="#e5e4cf"/><path d="m25.763 21.763-5.034-5.034a19.1 19.1 0 0 0 -4 4l5.034 5.034a12.028 12.028 0 0 1 4-4z" fill="#e5e4cf"/><path d="m20 32a12.017 12.017 0 0 1 .393-3h-7.134a17.5 17.5 0 0 0 0 6h7.134a12.017 12.017 0 0 1 -.393-3z" fill="#e5e4cf"/><path d="m21.763 38.237-5.034 5.034a19.1 19.1 0 0 0 4 4l5.034-5.034a12.028 12.028 0 0 1 -4-4z" fill="#e5e4cf"/><g fill="#143441"><path d="m13 32a19.142 19.142 0 0 1 .259-3h-6.074a24.417 24.417 0 0 0 0 6h6.074a19.142 19.142 0 0 1 -.259-3z"/><path d="m20.729 16.729-4.289-4.289a25.055 25.055 0 0 0 -4 4l4.289 4.289a19.1 19.1 0 0 1 4-4z"/><path d="m32 13a19.142 19.142 0 0 1 3 .259v-6.074a24.417 24.417 0 0 0 -6 0v6.074a19.142 19.142 0 0 1 3-.259z"/><path d="m47.271 20.729 4.289-4.289a25.055 25.055 0 0 0 -4-4l-4.289 4.289a19.1 19.1 0 0 1 4 4z"/><path d="m56.815 29h-6.074a17.5 17.5 0 0 1 0 6h6.074a24.417 24.417 0 0 0 0-6z"/><path d="m47.271 43.271a19.1 19.1 0 0 1 -4 4l4.289 4.289a25.055 25.055 0 0 0 4-4z"/><path d="m32 51a19.142 19.142 0 0 1 -3-.259v6.074a24.417 24.417 0 0 0 6 0v-6.074a19.142 19.142 0 0 1 -3 .259z"/><path d="m16.729 43.271-4.289 4.289a25.055 25.055 0 0 0 4 4l4.289-4.289a19.1 19.1 0 0 1 -4-4z"/><path d="m32 51.5a19.5 19.5 0 1 1 19.5-19.5 19.523 19.523 0 0 1 -19.5 19.5zm0-38a18.5 18.5 0 1 0 18.5 18.5 18.521 18.521 0 0 0 -18.5-18.5z"/></g><path d="m32 57.5a25.5 25.5 0 1 1 25.5-25.5 25.529 25.529 0 0 1 -25.5 25.5zm0-50a24.5 24.5 0 1 0 24.5 24.5 24.528 24.528 0 0 0 -24.5-24.5z" fill="#ffd782"/><path d="m32 44.5a12.5 12.5 0 1 1 12.5-12.5 12.514 12.514 0 0 1 -12.5 12.5zm0-24a11.5 11.5 0 1 0 11.5 11.5 11.513 11.513 0 0 0 -11.5-11.5z" fill="#e5e4cf"/><path d="m33 25h-2v-4a1 1 0 0 1 1-1 1 1 0 0 1 1 1z" fill="#d3843d"/><path d="m25 33h-4a1 1 0 0 1 -1-1 1 1 0 0 1 1-1h4z" fill="#d3843d"/><path d="m43 33h-4v-2h4a1 1 0 0 1 1 1 1 1 0 0 1 -1 1z" fill="#d3843d"/><path d="m32 44a1 1 0 0 1 -1-1v-4h2v4a1 1 0 0 1 -1 1z" fill="#d3843d"/><circle cx="41" cy="52" fill="#f4f4e6" r="2"/><path d="m38 30h-.349a6 6 0 0 0 -3.651-3.651v-.349a2 2 0 0 0 -2-2 2 2 0 0 0 -2 2v.349a6 6 0 0 0 -3.651 3.651h-.349a2 2 0 0 0 -2 2 2 2 0 0 0 2 2h.349a6 6 0 0 0 3.651 3.651v.349a2 2 0 0 0 2 2 2 2 0 0 0 2-2v-.349a6 6 0 0 0 3.651-3.651h.349a2 2 0 0 0 2-2 2 2 0 0 0 -2-2z" fill="#f9bb4b"/><circle cx="32" cy="32" fill="#fff69a" r="2"/></g></svg>